<?xml version="1.0" encoding="utf-8"?>
<!-- Generator: Adobe Illustrator 26.5.0, SVG Export Plug-In . SVG Version: 6.00 Build 0)  -->
<svg version="1.1" id="Layer_1" xmlns="http://www.w3.org/2000/svg" xmlns:xlink="http://www.w3.org/1999/xlink" x="0px" y="0px"
	 viewBox="0 0 150 150" style="enable-background:new 0 0 150 150;" xml:space="preserve">
<g>
	<path d="M119.7,114c-12.6,3-33.5-0.3-46.7,0.8c0-0.5,0.1-0.9,0.1-1.4h-0.3c-0.2,1.4-0.5,2.8-0.7,4.2l-2.5-0.3
		c0-0.6,0.1-1.1,0.1-1.7c-15.9,0.5-31.1,1.9-45.6,4c1.1,6.4,3.6,9.5,7.3,10.7H43c4.6-0.7,10-1.9,15.7-2.6
		c21.5-2.6,50.1-3.3,66.7,0.8C127.1,122.7,122.1,117.8,119.7,114z"/>
	<path d="M70.9,113.4h2C75,100.4,77,87.1,82,78c11.8,0.1,26.4,5.3,34.9,3.2c0.9-18.3-21.3-12.2-33.7-16.3c2.4-13,5.5-25.1,9.6-35.9
		c-2.8-4.4-6-8.4-12.4-9.4c-3.9,13.6-0.8,31.4-5,45.2c-9,1.3-19.6,0.4-28.4,2c-0.2,7.4,5.4,9.4,8.1,14.2c4.8-2.4,13.5-6.9,19-2.2
		c-1.9,11.6-3.1,24.1-4.2,36.8c0.4,0,0.7,0,1.1,0C70.9,114.9,70.9,114.1,70.9,113.4z"/>
	<path d="M72.1,117.6c0.2-1.4,0.5-2.8,0.7-4.2h-2c0,0.7,0,1.5,0,2.2c-0.4,0-0.7,0-1.1,0c0,0.6-0.1,1.1-0.1,1.7L72.1,117.6z"/>
	<path d="M72.1,117.6c0.2-1.4,0.5-2.8,0.7-4.2h-2c0,0.7,0,1.5,0,2.2c-0.4,0-0.7,0-1.1,0c0,0.6-0.1,1.1-0.1,1.7L72.1,117.6z"/>
</g>
</svg>
