<?xml version="1.0" encoding="utf-8"?>
<!-- Generator: Adobe Illustrator 26.5.0, SVG Export Plug-In . SVG Version: 6.00 Build 0)  -->
<svg version="1.1" id="Layer_1" xmlns="http://www.w3.org/2000/svg" xmlns:xlink="http://www.w3.org/1999/xlink" x="0px" y="0px"
	 viewBox="0 0 150 150" style="enable-background:new 0 0 150 150;" xml:space="preserve">
<g>
	<path d="M98.3,50.6c-1.6-6.2-7.2-8.4-11.7-11.7c-4.1,12.9-14,20.2-23.5,27.7C77.6,63.9,86.3,55.6,98.3,50.6z"/>
	<path d="M43,81.6c7.7-10.8-7.4-21.2-15.1-21.8C30.6,69.3,35.6,76.6,43,81.6z"/>
	<path d="M88.3,107.6c-7.5-6.3-25.5-23.3-27.7-32.7c-3.6-15.6,4.4-31.7,5-47.8c-4-3.8-9.2-6.5-16.8-6.7c4.7,10.8,6.2,28.8,4.8,44.7
		c-0.4,10.1-2.2,20.7-6.4,30.9c-1.6,4.7-3.9,8.8-6.6,12.4c-4.7,7-10.9,13.4-19.1,18.9c21.2-7.1,34.1-24.6,38.3-45.6
		c3.4,7.3,9.6,15.8,15.9,24.3c5.2,7,11.8,18.6,18.5,21.8c8.7,4.2,22.5,0.4,34.4-0.8C115.2,122.8,100.5,117.9,88.3,107.6z"/>
</g>
</svg>
