<?xml version="1.0" encoding="utf-8"?>
<!-- Generator: Adobe Illustrator 26.5.0, SVG Export Plug-In . SVG Version: 6.00 Build 0)  -->
<svg version="1.1" id="Layer_1" xmlns="http://www.w3.org/2000/svg" xmlns:xlink="http://www.w3.org/1999/xlink" x="0px" y="0px"
	 viewBox="0 0 150 150" style="enable-background:new 0 0 150 150;" xml:space="preserve">
<style type="text/css">
	.st0{fill-rule:evenodd;clip-rule:evenodd;}
</style>
<g>
	<path class="st0" d="M75.8,20c4.1,0.9,9.8,5.9,9.4,10.2c-0.4,3.9-11.4,12.4-15.3,16.2C54.4,61,34.6,78,16.2,84.7
		C37.6,64.7,62.5,48.2,75.8,20z"/>
	<path class="st0" d="M94.1,76.2c-5.6-1.4-11.9-1.8-18.3-0.7c1.7,3.4,0.9,7.1,0.7,9.1c3.6,0.6,5.1-1,8.4-0.7c2.9,1.9,8,5,7,8.4
		c-5.3,0.3-11.9-0.7-16.2,0.7c-1.9,8.4-2.7,17.9-4.9,26c11.7,8,42-12.5,40.8,10.5c-16.3-5.3-43-2.3-62.6-2.1
		c-5.4,5-13.9,1.7-14.8-5.6c9.8-3,22.3-0.3,33.8-0.7c1.8-4.2,2.1-12.7,0-16.9c-5.8,0.8-6.8,6.7-7,11.2c-6.8,1.8-9.8-6.1-11.3-12
		c1.5-2.3,2.8,2.4,5.6,2.8c4.6,0.8,8.3-2.7,12.7-2.8c-0.1-3.5,1.6-6.2,0-9.1c-6.7,2.2-12-1.6-14.1-6.3c5,0.3,8.1-1.3,13.4-0.7
		c1.4-2.1,0.4-6.6,0.7-9.8c-8.4,1.4-10.7-3.4-13.4-7.7C66.6,72.6,93.9,60.4,94.1,76.2z"/>
	<path class="st0" d="M83.6,102.1c2.9,3.7,7.2,7.9,12.4,6.2l0.6,0.8c-3.9,1.9-8.7,1.7-12.1,5c-2.2,2.2-0.4,7.3-3.3,6.2
		C78.7,114,76.4,104.9,83.6,102.1z"/>
	<path class="st0" d="M83.1,37.6c0.6,0,0.6,0.4,0.6,0.9c8.4,7.5,14.5,16.7,22.5,24.6c8.2,8,17.1,14.3,27.6,20.9
		c-19.8-0.6-28.2-7-37.7-19.5C89.6,55.8,83.7,48.3,83.1,37.6z"/>
</g>
</svg>
