<?xml version="1.0" encoding="utf-8"?>
<!-- Generator: Adobe Illustrator 26.5.0, SVG Export Plug-In . SVG Version: 6.00 Build 0)  -->
<svg version="1.1" id="Layer_1" xmlns="http://www.w3.org/2000/svg" xmlns:xlink="http://www.w3.org/1999/xlink" x="0px" y="0px"
	 viewBox="0 0 150 150" style="enable-background:new 0 0 150 150;" xml:space="preserve">
<style type="text/css">
	.st0{fill-rule:evenodd;clip-rule:evenodd;}
</style>
<g>
	<path class="st0" d="M64.9,79.2c-15.2,7.4-23.5,22.1-39.6,28.6c1.3-7.3,8.9-11.5,14.2-16.9c5.9-6,11.1-12.5,15.1-20.9
		C59.3,71.8,64.3,73.4,64.9,79.2z"/>
	<path d="M77.3,43.9c0.5-6.6-0.5-13.2,4.9-17.1c-1.4-6.4-8-14.3-14.7-8.1C66.6,48.6,69.2,75,71.2,102c0.1,1.3,0.2,2.5,0.3,3.8
		c0.3,2.2,0.5,4.6,0.7,6.7c0.1,0.6,0.2,1.2,0.3,1.8c0.7,5,1,11-2.4,7.9c-4.4-3.9-8.9-7.7-11.4-6c8.7,3.5,6.8,17.7,19.4,17.4
		c0.1-0.2,0.1-0.3,0.2-0.5c0.5-1.4,0.9-3.3,1.1-5.3C77.2,101.4,75.4,69.5,77.3,43.9z"/>
	<path d="M115.6,98.3c-13.2-5.8-19.7-20.5-33.8-24.8c-0.2-1.2-1.2-0.1-1.5,0.8c5.5,9.4,26,30,39.7,34.4c1.7-0.2,8-1.2,2.6-6.2
		c-1.8-1.1-3.8-2.4-5.8-3.7C116.4,98.7,116,98.5,115.6,98.3z"/>
	<path class="st0" d="M107.4,50.6c-10.7,4.7-20.2,10.8-30.2,16.3c5.3-9.4,13.5-15.8,17.9-26.1C101.5,41.9,105.7,45.1,107.4,50.6z"/>
	<path class="st0" d="M31.9,66.3c-1.3,1.6-0.2,1.1,0.7,1.7c9.9-1.3,36.8,5.9,25-13.3C48.9,56.6,40.7,64.7,31.9,66.3z"/>
</g>
</svg>
