<?xml version="1.0" encoding="utf-8"?>
<!-- Generator: Adobe Illustrator 26.5.0, SVG Export Plug-In . SVG Version: 6.00 Build 0)  -->
<svg version="1.1" id="Layer_1" xmlns="http://www.w3.org/2000/svg" xmlns:xlink="http://www.w3.org/1999/xlink" x="0px" y="0px"
	 viewBox="0 0 150 150" style="enable-background:new 0 0 150 150;" xml:space="preserve">
<g>
	<path d="M77.3,57.8c12.4-4,27.6,0.8,38,1c1.2-6.3-2.7-7.8-5-10.7c-9.9,0.6-24.9,3.5-32.7-1.7c0.9-9.3,3.3-17.1,5.9-24.6
		c-2.1-3.5-5.6-5.6-10.5-6.5c-0.5,6.2-0.4,23.7-3.5,32.7c-8.2,1.4-17.4,1.6-26.6,2c-1.5,10.7,15,9.5,25.5,7.7
		c3,17.9-0.1,42.3,0.1,64.6c-4.9,1.2-7.7-4.1-10.6-2c8.1,1.8,6.5,12.8,13.8,15.4c6-2.6,3.8-11.8,4-17.6
		C76.3,97.3,76.6,79.3,77.3,57.8z"/>
	<path d="M54.5,65.1C45.7,81,30,90.2,16.4,101.5C38.6,98.5,47.2,82,63.8,73.5C62.7,68.7,59.6,65.9,54.5,65.1z"/>
	<path d="M121.2,103.6c-15.9-8.8-26.4-20.9-39.9-31.4c0-1-1.7-1.2-1.9,0c11.4,20.9,24.9,39.7,54.2,42.8
		C133.5,108.1,125.6,106,121.2,103.6z"/>
</g>
</svg>
