<?xml version="1.0" encoding="UTF-8"?>
<svg id="a" data-name="Layer 1" xmlns="http://www.w3.org/2000/svg" width="250" height="64" viewBox="0 0 250 64">
  <path d="M45.3,11.34c-.63-2.69,1.35-4.99,3.16-6.34,1.99,1.66,3.34,5.22,3.16,6.34-.99-1.03-2.44-1.98-3.34-2.21-1.21,.4-2.25,1.17-2.98,2.21Zm-13.44,1.66c.55-1.9,1.26-4.12,2.8-5.62,1.53,.71,2.8,1.98,3.87,3.01-.36,1.03-.72,2.06-1.08,3.17-.9-.57-1.92-.95-2.98-1.11-.33,.67-.54,1.39-.63,2.14l-1.98-1.58Zm9.83-4.51h.18c1.26,.95,1.71,1.66,2.71,3.4-.81,1.66-1.9,5.23-1.53,8.16-.99-1.9-2.35-4.28-4.06-5.86,.36-2.14,1.36-4.44,2.71-5.7Zm6.95,20.66c-.72,0-1.08,.08-1.44,.47-1.17-4.42-2.52-6.81-2.25-11.72,.36-1.66,0-3.17,1.26-4.59,.45-.71,1.17-1.98,2.35-2.69,.36,.16,1.8,1.5,2.43,2.61,.99,1.03,1.35,3.25,1.71,4.91-.18,3.48-1.44,6.65-2.44,11.24-.53-.17-1.08-.25-1.63-.24h0ZM27.17,13.24l.28-.48c2.35,.24,4.06,1.82,5.68,3.17-.28,1.9-.18,3.4-.09,5.38-1.63-.95-3.54-1.35-5.6-1.5-1.17-1.81-.9-4.59-.27-6.57Zm-8.02,.95c1.9,.24,4.06,.08,5.69,1.03-.18,1.58,.18,3.01,.36,4.51l-1.89,.4c-.99,.71-2.26-.08-3.35-.08-.45-.32-1.17-2.93-.81-5.86h0Zm15.33,5.38c.28-1.9,.09-3.87,1.53-5.23l1.08,.64c3.43,2.06,4.15,5.3,5.5,8.16,.63,1.82,2.17,4.59,3.6,6.57-.51,.06-.98,.28-1.35,.63l-4.42-2.3c-3.69-1.9-5.22-5.23-5.94-8.47Zm-10.83,1.9c3.07-.15,6.13-.15,8.48,1.27,2.44,2.14,4.7,4.83,7.74,6.49,1.08,.55,2.52,1.5,3.97,2.06-.28,.4-.72,.87-.81,1.19-5.59-.16-12.09-1.58-16.5-4.12-2.7-.63-3.24-4.51-2.88-6.88Zm-9.02,.16c2.07-.32,4.33-.08,6.31,.4,.63,1.9,1.36,3.8,2.43,5.46-2.07-.32-4.15-.71-6.5-.55-.97-1.67-1.72-3.45-2.25-5.3h0Zm-4.51,3.17c.99,0,2.16-.08,2.98,.08,.36,1.19,1.17,2.3,1.98,3.17-2.18,.71-3.88,1.82-5.77,3.01-1.62-1.66-3.52-2.85-4.15-4.83,1.62-.6,3.27-1.07,4.96-1.42Zm1.8,6.33c2.09-1.52,4.69-2.07,7.3-2.62,1.71,.4,3.6,.63,5.32,1.03,5.5,2.21,11.64,3.96,18.13,3.96,.18,.49,.18,1.02,0,1.5-5.74,1.1-11.57,1.63-17.41,1.58-5.14-.46-11-.94-13.35-5.45Zm35.99-.47l1.26-.08c0,.71-.28,1.27-.45,1.98-.38-.58-.66-1.22-.81-1.9h0Zm-1.99,.95l.99-.63,.45,1.27c0,.32,.28,.63,.09,.95-.63-.47-1-1.11-1.53-1.58h0Zm-1.71,1.66c.28-.32,.45-.79,.9-.87l2.25,1.82c-1.08-.31-2.16-.55-3.16-.95h0ZM6.7,37.86c.81-1.66,3.16-3.09,5.14-3.72,1.8,1.27,3.87,2.21,5.77,3.01-1.35,.87-2.8,1.66-3.97,2.77l-2.89-.16c-1.53-.31-2.79-1.01-4.06-1.89Zm37.61-2.14l-.18-1.11c.94,.05,1.88,.19,2.8,.39-.83,.36-1.72,.6-2.62,.71Zm.28,1.03c.81-.48,1.89-.63,2.8-.95-.55,.55-.99,1.35-1.71,1.82-.4-.24-.76-.53-1.09-.87h0Zm-17.77,1.26l9.29-.79,6.58-1.27,.09,.55,.28,.4c-3.16,1.58-6.67,3.25-10.01,4.42-3.7,.87-7.22,2.21-11.45,1.82-1.99-.16-4.78-1.34-5.95-2.38l2.16-1.9c.57-.42,1.17-.79,1.8-1.11,1.7,.33,6.02,.33,7.2,.25h0Zm16.59-.56c.04,.36,.29,.67,.63,.79-.37,.48-.83,.89-1.36,1.19-1.35,1.5-2.83,2.88-4.42,4.12-4.24,3.17-8.75,6.08-14.7,5.53-1.26,.08-2.62-.08-3.97-.16,.52-1.32,1.28-2.53,2.26-3.55,1.99-.71,4.06-1.03,6.13-1.42,4.87-.95,11.36-3.8,15.42-6.49h0Zm3.6,1.74l1.35,.16,1.08-.16c.58,2.73,1.3,5.42,2.17,8.08,.28,.79,.72,2.38,.9,3.17-.36,1.82-1.08,3.48-2.7,4.67l-1.62,1.19-1.44-1.19c-1.63-1.34-2.44-2.85-2.7-4.67,.17-1.09,.48-2.15,.9-3.17,.83-2.65,1.52-5.35,2.08-8.08h0Zm-31.47,4.12c.36,.08,.18-.48,.63-.32,1.35,.79,2.98,1.03,4.51,1.5-1.07,.98-2.04,2.06-2.89,3.24-2.16,.24-4.42,.08-6.13-.87,1.18-1.42,2.17-2.69,3.88-3.56Zm9.2,7.68c1.99,0,5.77-.79,6.95-1.42-.43,1.58-.73,3.2-.9,4.83-2.62,.64-5.34,.8-8.02,.48l.36-1.19c.62-.87,.8-1.9,1.61-2.69h0Zm23.45-12.67l-.99-.32c.28-.64,.81-1.19,1.18-1.82l-.19,2.14Zm17.15-25.34l-1.99,1.58c-.09-.75-.34-1.48-.72-2.14-.9,.4-1.99,.55-3.07,1.11-.08-1.13-.45-2.22-1.08-3.17,1.44-1.03,2.52-2.3,3.97-3.01,1.63,1.5,2.15,3.64,2.88,5.62h.01Zm-10.39-4.51c1.44,1.27,2.8,3.56,3.25,5.7-1.71,1.58-3.25,4.35-4.15,6.25,.36-3.01-.99-6.81-1.71-8.47,.81-1.74,.99-2.46,2.44-3.48h.18Zm15.06,4.75c.55,1.98,.9,4.75-.28,6.57-2.07,.16-3.97,.55-5.59,1.5,.09-1.98,.18-3.48-.09-5.38,1.53-1.34,3.25-2.93,5.68-3.17l.27,.48Zm8.02,.95c.28,2.93-.45,5.53-.81,5.86-1.17,0-2.35,.79-3.43,.08l-1.8-.4c.09-1.5,.55-2.93,.36-4.51,1.64-.95,3.71-.79,5.69-1.03h-.01Zm-15.41,5.38c-.72,3.25-2.25,6.41-5.86,8.47l-3.6,2.06-.63,.4c-.45-.39-.98-.69-1.55-.88,.72-1.66,2.89-4.28,3.52-6.49,1.35-2.85,2.07-6.08,5.5-8.16l1.08-.64c1.53,1.36,1.35,3.34,1.53,5.24Zm10.82,1.9c.36,2.38-.09,6.26-2.8,6.89-4.42,2.53-11,3.96-16.5,4.12-.2-.47-.51-.88-.9-1.2,1.44-.32,2.89-1.42,4.06-2.06,3.07-1.58,5.32-4.35,7.74-6.49,2.27-1.41,5.42-1.41,8.4-1.26h0Zm9.02,.16c-.55,1.82-1.17,3.64-2.25,5.3-2.35-.16-4.42,.24-6.49,.55,1.17-1.66,1.8-3.56,2.52-5.46,2.03-.53,4.14-.67,6.22-.4Zm4.51,3.17c1.72,.34,3.41,.82,5.05,1.42-.63,1.98-2.62,3.17-4.24,4.83-1.9-1.19-3.6-2.3-5.77-3.01,.94-.87,1.66-1.96,2.08-3.17,.81-.16,1.89-.08,2.88-.08h0Zm-1.71,6.33c-2.44,4.51-8.3,4.98-13.35,5.46-5.87,.05-11.73-.48-17.5-1.58-.18-.49-.18-1.02,0-1.5,6.58,0,12.72-1.74,18.22-3.96,1.71-.4,3.52-.63,5.32-1.03,2.61,.54,5.14,1.1,7.3,2.61h0Zm-34.18,.32c-.45,.55-.81,1.11-1.44,1.58-.09-.32,.09-.55,.09-.95l.45-1.27,.9,.64Zm1.89,1.82c-.99,.4-2.17,.63-3.25,.95l2.35-1.82c.45,.08,.63,.55,.9,.87Zm37.52,4.59c-1.24,.91-2.65,1.55-4.15,1.9l-2.8,.16c-1.17-1.11-2.7-1.9-4.06-2.77,1.99-.79,4.06-1.74,5.86-3.01,1.99,.63,4.24,2.05,5.14,3.72h0Zm-37.61-2.14c-.9-.12-1.78-.36-2.61-.71,.92-.21,1.85-.35,2.8-.4l-.18,1.11Zm-.28,1.03c-.18,.4-.63,.63-1.26,.71-.62-.44-1.15-1-1.53-1.66,.91,.32,1.99,.48,2.8,.95h0Zm17.77,1.26c1.08,.08,5.41,.08,7.22-.24,.61,.3,1.19,.67,1.71,1.11l2.25,1.9c-1.26,1.03-3.97,2.21-6.04,2.38-4.15,.4-7.76-.95-11.36-1.82-3.34-1.19-6.68-2.77-9.83-4.36l.36-.16-.09-.79,6.4,1.19,9.38,.79Zm-16.59-.55c4.06,2.69,10.46,5.53,15.33,6.49,2.17,.4,4.24,.71,6.14,1.42,1,1.02,1.8,2.23,2.35,3.56-1.35,.08-2.8,.24-4.06,.16-5.86,.55-10.46-2.38-14.61-5.53-1.62-1.24-3.13-2.62-4.51-4.12-.52-.3-.98-.71-1.35-1.19,.39-.08,.68-.4,.72-.8h0Zm-1.8,1.11c1.89,2.53,7.67,7.68,10.37,9.74,1.44,1.74,1.89,3.96,1.8,6.18-3.79-.32-7.67-2.14-9.65-5.07-.72-1.58-1.63-3.32-2.07-4.83-.81-1.9-1.71-3.64-1.9-5.78,.45,.08,1.1-.16,1.45-.24h0Zm29.59,4.75c1.8,.87,2.8,2.14,3.97,3.56-1.8,.95-4.06,1.11-6.23,.87-.72-1.19-1.8-2.21-2.8-3.25,1.45-.48,3.07-.71,4.42-1.5,.44-.15,.35,.4,.62,.32h0Zm-9.11,7.68c.81,.79,.9,1.82,1.53,2.69l.36,1.19c-2.68,.32-5.4,.16-8.02-.48-.18-1.62-.45-3.24-.81-4.83,1.16,.63,4.94,1.43,6.93,1.43h0Zm-13.45,3.64c.04,1.48-.17,2.95-.63,4.36-2.17-.4-3.87-1.35-5.32-2.21l-1.17-1.27c.18-.47,1.71-2.14,2.17-3.87,1.57,1.14,3.23,2.14,4.96,3Zm-9.56-16.39l-.36-2.06c.47,.64,.98,1.25,1.53,1.82l-1.18,.24Zm-4.87,.32c.28,.08,.9,.32,1.35,.24-.18,2.14-.99,3.87-1.8,5.78-.45,1.5-1.35,3.25-2.07,4.83-2.08,2.93-5.95,4.75-9.65,5.07-.09-2.21,.36-4.42,1.71-6.18,2.71-2.06,8.48-7.21,10.46-9.74h0Zm-7.04,16.07c1.7-.87,3.33-1.87,4.87-3.01,.55,1.74,2.07,3.4,2.25,3.87l-1.17,1.27c-1.53,.87-3.16,1.82-5.32,2.21-.5-1.39-.72-2.87-.63-4.34h0Z" style="fill-rule: evenodd;"/>
  <g>
    <path d="M120.86,14.26c0,.47-.09,.9-.28,1.29-.19,.39-.45,.72-.77,1-.33,.27-.7,.49-1.13,.63-.43,.15-.89,.22-1.38,.22h-5.78V5.22h6.06c.42,0,.81,.09,1.15,.27,.34,.18,.64,.42,.88,.71,.24,.29,.43,.62,.56,1,.13,.37,.2,.75,.2,1.12,0,.61-.15,1.17-.45,1.68-.3,.51-.74,.9-1.3,1.15,.7,.21,1.25,.59,1.66,1.14,.41,.56,.61,1.21,.61,1.96Zm-7.81-7.7v4.07h3.88c.27,0,.53-.05,.75-.16,.23-.11,.43-.25,.59-.44,.17-.18,.3-.4,.4-.64,.1-.25,.15-.51,.15-.78s-.05-.55-.14-.81c-.09-.25-.21-.47-.37-.65-.15-.18-.34-.33-.57-.43s-.46-.15-.71-.15h-3.98Zm6.25,7.43c0-.27-.05-.54-.15-.8-.1-.26-.23-.48-.4-.68-.17-.19-.36-.35-.59-.46-.23-.11-.48-.17-.75-.17h-4.36v4.19h4.24c.29,0,.55-.06,.79-.17s.45-.27,.63-.45c.18-.19,.33-.41,.43-.66s.15-.52,.15-.79Z"/>
    <path d="M123.03,17.4V5.22h5.22c.54,0,1.03,.11,1.48,.33,.45,.22,.84,.52,1.17,.89,.33,.37,.58,.79,.76,1.25,.18,.46,.27,.94,.27,1.42,0,.42-.06,.83-.18,1.23s-.29,.75-.51,1.07c-.22,.32-.49,.6-.81,.82-.31,.23-.67,.39-1.06,.5l2.95,4.67h-1.75l-2.78-4.38h-3.23v4.38h-1.54Zm1.54-5.75h3.69c.32,0,.61-.07,.87-.21,.26-.14,.48-.32,.66-.56,.18-.23,.33-.51,.43-.82,.1-.31,.15-.63,.15-.96s-.06-.67-.18-.97c-.12-.3-.28-.57-.48-.81-.2-.23-.44-.42-.7-.55-.27-.13-.55-.2-.85-.2h-3.59v5.06Z"/>
    <path d="M138,5.22h1.3l4.98,12.18h-1.65l-1.44-3.57h-5.11l-1.42,3.57h-1.65l4.99-12.18Zm2.85,7.41l-2.2-5.63-2.26,5.63h4.46Z"/>
    <path d="M147.46,8.1v9.3h-1.54V5.22h1.2l7.55,9.49V5.24h1.54v12.17h-1.3l-7.45-9.3Z"/>
    <path d="M158.34,11.23c0-.73,.13-1.46,.39-2.19,.26-.73,.63-1.38,1.13-1.96s1.11-1.04,1.83-1.4,1.54-.53,2.45-.53c1.09,0,2.02,.25,2.8,.74,.78,.49,1.36,1.13,1.73,1.92l-1.22,.79c-.18-.39-.4-.71-.66-.98-.26-.26-.54-.47-.84-.63-.3-.16-.62-.27-.94-.34-.32-.07-.63-.1-.94-.1-.67,0-1.27,.14-1.79,.42s-.96,.65-1.31,1.1c-.35,.45-.62,.96-.8,1.53-.18,.57-.27,1.14-.27,1.71,0,.64,.11,1.25,.32,1.83,.21,.58,.51,1.09,.88,1.54,.38,.45,.82,.8,1.34,1.06,.51,.26,1.08,.4,1.68,.4,.32,0,.65-.04,.99-.12s.66-.21,.97-.39c.31-.18,.6-.4,.87-.67s.49-.59,.66-.97l1.29,.7c-.19,.46-.47,.86-.81,1.21s-.74,.64-1.18,.88c-.44,.24-.91,.42-1.4,.55-.49,.13-.97,.19-1.44,.19-.83,0-1.6-.18-2.3-.55-.7-.37-1.3-.84-1.81-1.43-.51-.59-.9-1.26-1.18-2.01-.28-.75-.42-1.51-.42-2.29Z"/>
    <path d="M180.62,5.22v12.18h-1.54v-5.54h-6.71v5.54h-1.54V5.22h1.54v5.27h6.71V5.22h1.54Z"/>
    <path d="M115.22,25.22h1.3l4.98,12.18h-1.65l-1.44-3.57h-5.11l-1.42,3.57h-1.65l4.99-12.18Zm2.85,7.41l-2.2-5.63-2.26,5.63h4.46Z"/>
    <path d="M121.89,31.23c0-.73,.13-1.46,.39-2.19,.26-.73,.63-1.38,1.13-1.96s1.11-1.04,1.83-1.4,1.54-.53,2.45-.53c1.09,0,2.02,.25,2.8,.74,.78,.49,1.36,1.13,1.73,1.92l-1.22,.79c-.18-.39-.4-.71-.66-.98-.26-.26-.54-.47-.84-.63-.3-.16-.62-.27-.94-.34-.32-.07-.63-.1-.94-.1-.67,0-1.27,.14-1.79,.42s-.96,.65-1.31,1.1c-.35,.45-.62,.96-.8,1.53-.18,.57-.27,1.14-.27,1.71,0,.64,.11,1.25,.32,1.83,.21,.58,.51,1.09,.88,1.54,.38,.45,.82,.8,1.34,1.06,.51,.26,1.08,.4,1.68,.4,.32,0,.65-.04,.99-.12s.66-.21,.97-.39c.31-.18,.6-.4,.87-.67s.49-.59,.66-.97l1.29,.7c-.19,.46-.47,.86-.81,1.21s-.74,.64-1.18,.88c-.44,.24-.91,.42-1.4,.55-.49,.13-.97,.19-1.44,.19-.83,0-1.6-.18-2.3-.55-.7-.37-1.3-.84-1.81-1.43-.51-.59-.9-1.26-1.18-2.01-.28-.75-.42-1.51-.42-2.29Z"/>
    <path d="M139.39,36.1c.71,0,1.3-.14,1.77-.41,.47-.27,.84-.63,1.12-1.07,.28-.44,.48-.94,.59-1.51,.11-.57,.17-1.14,.17-1.72v-6.16h1.54v6.16c0,.82-.09,1.6-.28,2.34-.19,.74-.49,1.39-.9,1.95-.41,.56-.95,1-1.6,1.33-.66,.33-1.46,.49-2.39,.49s-1.79-.17-2.45-.51c-.66-.34-1.2-.8-1.6-1.36s-.7-1.22-.88-1.96-.27-1.5-.27-2.27v-6.16h1.54v6.16c0,.61,.06,1.19,.18,1.76,.12,.57,.32,1.07,.6,1.5s.65,.79,1.12,1.06c.46,.27,1.04,.4,1.74,.4Z"/>
    <path d="M147.34,37.4v-12.18h5.08c.54,0,1.03,.11,1.48,.33,.45,.22,.84,.52,1.17,.89,.33,.37,.58,.79,.76,1.25,.18,.46,.27,.94,.27,1.42s-.09,.99-.26,1.46c-.17,.47-.41,.89-.73,1.25-.31,.37-.69,.66-1.13,.88s-.93,.33-1.47,.33h-3.64v4.38h-1.54Zm1.54-5.75h3.55c.32,0,.61-.07,.87-.2,.26-.13,.48-.31,.66-.55,.18-.23,.33-.51,.43-.81,.1-.31,.15-.64,.15-.98s-.06-.69-.18-1c-.12-.31-.28-.58-.48-.81-.2-.23-.44-.41-.7-.53-.27-.13-.55-.19-.85-.19h-3.45v5.06Z"/>
    <path d="M163.04,36.1c.71,0,1.3-.14,1.77-.41,.47-.27,.84-.63,1.12-1.07,.28-.44,.48-.94,.59-1.51,.11-.57,.17-1.14,.17-1.72v-6.16h1.54v6.16c0,.82-.09,1.6-.28,2.34-.19,.74-.49,1.39-.9,1.95-.41,.56-.95,1-1.6,1.33-.66,.33-1.46,.49-2.39,.49s-1.79-.17-2.45-.51c-.66-.34-1.2-.8-1.6-1.36s-.7-1.22-.88-1.96-.27-1.5-.27-2.27v-6.16h1.54v6.16c0,.61,.06,1.19,.18,1.76,.12,.57,.32,1.07,.6,1.5s.65,.79,1.12,1.06c.46,.27,1.04,.4,1.74,.4Z"/>
    <path d="M172.53,28.1v9.3h-1.54v-12.18h1.2l7.55,9.49v-9.47h1.54v12.17h-1.3l-7.45-9.3Z"/>
    <path d="M183.4,31.23c0-.73,.13-1.46,.39-2.19,.26-.73,.63-1.38,1.13-1.96s1.11-1.04,1.83-1.4,1.54-.53,2.45-.53c1.09,0,2.02,.25,2.8,.74,.78,.49,1.36,1.13,1.73,1.92l-1.22,.79c-.18-.39-.4-.71-.66-.98-.26-.26-.54-.47-.84-.63-.3-.16-.62-.27-.94-.34-.32-.07-.63-.1-.94-.1-.67,0-1.27,.14-1.79,.42s-.96,.65-1.31,1.1c-.35,.45-.62,.96-.8,1.53-.18,.57-.27,1.14-.27,1.71,0,.64,.11,1.25,.32,1.83,.21,.58,.51,1.09,.88,1.54,.38,.45,.82,.8,1.34,1.06,.51,.26,1.08,.4,1.68,.4,.32,0,.65-.04,.99-.12s.66-.21,.97-.39c.31-.18,.6-.4,.87-.67s.49-.59,.66-.97l1.29,.7c-.19,.46-.47,.86-.81,1.21s-.74,.64-1.18,.88c-.44,.24-.91,.42-1.4,.55-.49,.13-.97,.19-1.44,.19-.83,0-1.6-.18-2.3-.55-.7-.37-1.3-.84-1.81-1.43-.51-.59-.9-1.26-1.18-2.01-.28-.75-.42-1.51-.42-2.29Z"/>
    <path d="M204.68,26.59h-4.2v10.81h-1.54v-10.81h-4.2v-1.37h9.95v1.37Z"/>
    <path d="M211.44,36.1c.71,0,1.3-.14,1.77-.41,.47-.27,.84-.63,1.12-1.07,.28-.44,.48-.94,.59-1.51,.11-.57,.17-1.14,.17-1.72v-6.16h1.54v6.16c0,.82-.09,1.6-.28,2.34-.19,.74-.49,1.39-.9,1.95-.41,.56-.95,1-1.6,1.33-.66,.33-1.46,.49-2.39,.49s-1.79-.17-2.45-.51c-.66-.34-1.2-.8-1.6-1.36s-.7-1.22-.88-1.96-.27-1.5-.27-2.27v-6.16h1.54v6.16c0,.61,.06,1.19,.18,1.76,.12,.57,.32,1.07,.6,1.5s.65,.79,1.12,1.06c.46,.27,1.04,.4,1.74,.4Z"/>
    <path d="M219.38,37.4v-12.18h5.22c.54,0,1.03,.11,1.48,.33,.45,.22,.84,.52,1.17,.89,.33,.37,.58,.79,.76,1.25,.18,.46,.27,.94,.27,1.42,0,.42-.06,.83-.18,1.23s-.29,.75-.51,1.07c-.22,.32-.49,.6-.81,.82-.31,.23-.67,.39-1.06,.5l2.95,4.67h-1.75l-2.78-4.38h-3.23v4.38h-1.54Zm1.54-5.75h3.69c.32,0,.61-.07,.87-.21,.26-.14,.48-.32,.66-.56,.18-.23,.33-.51,.43-.82,.1-.31,.15-.63,.15-.96s-.06-.67-.18-.97c-.12-.3-.28-.57-.48-.81-.2-.23-.44-.42-.7-.55-.27-.13-.55-.2-.85-.2h-3.59v5.06Z"/>
    <path d="M238.93,36.03v1.37h-8.27v-12.18h8.12v1.37h-6.57v3.95h5.71v1.29h-5.71v4.2h6.73Z"/>
    <path d="M110.72,51.23c0-.73,.13-1.46,.39-2.19,.26-.73,.63-1.38,1.13-1.96s1.11-1.04,1.83-1.4,1.54-.53,2.45-.53c1.09,0,2.02,.25,2.8,.74,.78,.49,1.36,1.13,1.73,1.92l-1.22,.79c-.18-.39-.4-.71-.66-.98-.26-.26-.54-.47-.84-.63-.3-.16-.62-.27-.94-.34-.32-.07-.63-.1-.94-.1-.67,0-1.27,.14-1.79,.42s-.96,.65-1.31,1.1c-.35,.45-.62,.96-.8,1.53-.18,.57-.27,1.14-.27,1.71,0,.64,.11,1.25,.32,1.83,.21,.58,.51,1.09,.88,1.54,.38,.45,.82,.8,1.34,1.06,.51,.26,1.08,.4,1.68,.4,.32,0,.65-.04,.99-.12s.66-.21,.97-.39c.31-.18,.6-.4,.87-.67s.49-.59,.66-.97l1.29,.7c-.19,.46-.47,.86-.81,1.21s-.74,.64-1.18,.88c-.44,.24-.91,.42-1.4,.55-.49,.13-.97,.19-1.44,.19-.83,0-1.6-.18-2.3-.55-.7-.37-1.3-.84-1.81-1.43-.51-.59-.9-1.26-1.18-2.01-.28-.75-.42-1.51-.42-2.29Z"/>
    <path d="M131.48,56.03v1.37h-8.27v-12.18h8.12v1.37h-6.57v3.95h5.71v1.29h-5.71v4.2h6.73Z"/>
    <path d="M135.14,48.1v9.3h-1.54v-12.18h1.2l7.55,9.49v-9.47h1.54v12.17h-1.3l-7.45-9.3Z"/>
    <path d="M155.59,46.59h-4.2v10.81h-1.54v-10.81h-4.2v-1.37h9.95v1.37Z"/>
    <path d="M165.61,56.03v1.37h-8.27v-12.18h8.12v1.37h-6.57v3.95h5.71v1.29h-5.71v4.2h6.73Z"/>
    <path d="M167.72,57.4v-12.18h5.22c.54,0,1.03,.11,1.48,.33,.45,.22,.84,.52,1.17,.89,.33,.37,.58,.79,.76,1.25,.18,.46,.27,.94,.27,1.42,0,.42-.06,.83-.18,1.23s-.29,.75-.51,1.07c-.22,.32-.49,.6-.81,.82-.31,.23-.67,.39-1.06,.5l2.95,4.67h-1.75l-2.78-4.38h-3.23v4.38h-1.54Zm1.54-5.75h3.69c.32,0,.61-.07,.87-.21,.26-.14,.48-.32,.66-.56,.18-.23,.33-.51,.43-.82,.1-.31,.15-.63,.15-.96s-.06-.67-.18-.97c-.12-.3-.28-.57-.48-.81-.2-.23-.44-.42-.7-.55-.27-.13-.55-.2-.85-.2h-3.59v5.06Z"/>
  </g>
</svg>