<?xml version="1.0" encoding="UTF-8"?>
<svg id="a" data-name="Layer 1" xmlns="http://www.w3.org/2000/svg" width="217.77" height="64" viewBox="0 0 217.77 64">
  <path d="M45.3,11.34c-.63-2.69,1.35-4.99,3.16-6.34,1.99,1.66,3.34,5.22,3.16,6.34-.99-1.03-2.44-1.98-3.34-2.21-1.21,.4-2.25,1.17-2.98,2.21Zm-13.44,1.66c.55-1.9,1.26-4.12,2.8-5.62,1.53,.71,2.8,1.98,3.87,3.01-.36,1.03-.72,2.06-1.08,3.17-.9-.57-1.92-.95-2.98-1.11-.33,.67-.54,1.39-.63,2.14l-1.98-1.58Zm9.83-4.51h.18c1.26,.95,1.71,1.66,2.71,3.4-.81,1.66-1.9,5.23-1.53,8.16-.99-1.9-2.35-4.28-4.06-5.86,.36-2.14,1.36-4.44,2.71-5.7Zm6.95,20.66c-.72,0-1.08,.08-1.44,.47-1.17-4.42-2.52-6.81-2.25-11.72,.36-1.66,0-3.17,1.26-4.59,.45-.71,1.17-1.98,2.35-2.69,.36,.16,1.8,1.5,2.43,2.61,.99,1.03,1.35,3.25,1.71,4.91-.18,3.48-1.44,6.65-2.44,11.24-.53-.17-1.08-.25-1.63-.24h0ZM27.17,13.24l.28-.48c2.35,.24,4.06,1.82,5.68,3.17-.28,1.9-.18,3.4-.09,5.38-1.63-.95-3.54-1.35-5.6-1.5-1.17-1.81-.9-4.59-.27-6.57Zm-8.02,.95c1.9,.24,4.06,.08,5.69,1.03-.18,1.58,.18,3.01,.36,4.51l-1.89,.4c-.99,.71-2.26-.08-3.35-.08-.45-.32-1.17-2.93-.81-5.86h0Zm15.33,5.38c.28-1.9,.09-3.87,1.53-5.23l1.08,.64c3.43,2.06,4.15,5.3,5.5,8.16,.63,1.82,2.17,4.59,3.6,6.57-.51,.06-.98,.28-1.35,.63l-4.42-2.3c-3.69-1.9-5.22-5.23-5.94-8.47Zm-10.83,1.9c3.07-.15,6.13-.15,8.48,1.27,2.44,2.14,4.7,4.83,7.74,6.49,1.08,.55,2.52,1.5,3.97,2.06-.28,.4-.72,.87-.81,1.19-5.59-.16-12.09-1.58-16.5-4.12-2.7-.63-3.24-4.51-2.88-6.88Zm-9.02,.16c2.07-.32,4.33-.08,6.31,.4,.63,1.9,1.36,3.8,2.43,5.46-2.07-.32-4.15-.71-6.5-.55-.97-1.67-1.72-3.45-2.25-5.3h0Zm-4.51,3.17c.99,0,2.16-.08,2.98,.08,.36,1.19,1.17,2.3,1.98,3.17-2.18,.71-3.88,1.82-5.77,3.01-1.62-1.66-3.52-2.85-4.15-4.83,1.62-.6,3.27-1.07,4.96-1.42Zm1.8,6.33c2.09-1.52,4.69-2.07,7.3-2.62,1.71,.4,3.6,.63,5.32,1.03,5.5,2.21,11.64,3.96,18.13,3.96,.18,.49,.18,1.02,0,1.5-5.74,1.1-11.57,1.63-17.41,1.58-5.14-.46-11-.94-13.35-5.45Zm35.99-.47l1.26-.08c0,.71-.28,1.27-.45,1.98-.38-.58-.66-1.22-.81-1.9h0Zm-1.99,.95l.99-.63,.45,1.27c0,.32,.28,.63,.09,.95-.63-.47-1-1.11-1.53-1.58h0Zm-1.71,1.66c.28-.32,.45-.79,.9-.87l2.25,1.82c-1.08-.31-2.16-.55-3.16-.95h0ZM6.7,37.86c.81-1.66,3.16-3.09,5.14-3.72,1.8,1.27,3.87,2.21,5.77,3.01-1.35,.87-2.8,1.66-3.97,2.77l-2.89-.16c-1.53-.31-2.79-1.01-4.06-1.89Zm37.61-2.14l-.18-1.11c.94,.05,1.88,.19,2.8,.39-.83,.36-1.72,.6-2.62,.71Zm.28,1.03c.81-.48,1.89-.63,2.8-.95-.55,.55-.99,1.35-1.71,1.82-.4-.24-.76-.53-1.09-.87h0Zm-17.77,1.26l9.29-.79,6.58-1.27,.09,.55,.28,.4c-3.16,1.58-6.67,3.25-10.01,4.42-3.7,.87-7.22,2.21-11.45,1.82-1.99-.16-4.78-1.34-5.95-2.38l2.16-1.9c.57-.42,1.17-.79,1.8-1.11,1.7,.33,6.02,.33,7.2,.25h0Zm16.59-.56c.04,.36,.29,.67,.63,.79-.37,.48-.83,.89-1.36,1.19-1.35,1.5-2.83,2.88-4.42,4.12-4.24,3.17-8.75,6.08-14.7,5.53-1.26,.08-2.62-.08-3.97-.16,.52-1.32,1.28-2.53,2.26-3.55,1.99-.71,4.06-1.03,6.13-1.42,4.87-.95,11.36-3.8,15.42-6.49h0Zm3.6,1.74l1.35,.16,1.08-.16c.58,2.73,1.3,5.42,2.17,8.08,.28,.79,.72,2.38,.9,3.17-.36,1.82-1.08,3.48-2.7,4.67l-1.62,1.19-1.44-1.19c-1.63-1.34-2.44-2.85-2.7-4.67,.17-1.09,.48-2.15,.9-3.17,.83-2.65,1.52-5.35,2.08-8.08h0Zm-31.47,4.12c.36,.08,.18-.48,.63-.32,1.35,.79,2.98,1.03,4.51,1.5-1.07,.98-2.04,2.06-2.89,3.24-2.16,.24-4.42,.08-6.13-.87,1.18-1.42,2.17-2.69,3.88-3.56Zm9.2,7.68c1.99,0,5.77-.79,6.95-1.42-.43,1.58-.73,3.2-.9,4.83-2.62,.64-5.34,.8-8.02,.48l.36-1.19c.62-.87,.8-1.9,1.61-2.69h0Zm23.45-12.67l-.99-.32c.28-.64,.81-1.19,1.18-1.82l-.19,2.14Zm17.15-25.34l-1.99,1.58c-.09-.75-.34-1.48-.72-2.14-.9,.4-1.99,.55-3.07,1.11-.08-1.13-.45-2.22-1.08-3.17,1.44-1.03,2.52-2.3,3.97-3.01,1.63,1.5,2.15,3.64,2.88,5.62h.01Zm-10.39-4.51c1.44,1.27,2.8,3.56,3.25,5.7-1.71,1.58-3.25,4.35-4.15,6.25,.36-3.01-.99-6.81-1.71-8.47,.81-1.74,.99-2.46,2.44-3.48h.18Zm15.06,4.75c.55,1.98,.9,4.75-.28,6.57-2.07,.16-3.97,.55-5.59,1.5,.09-1.98,.18-3.48-.09-5.38,1.53-1.34,3.25-2.93,5.68-3.17l.27,.48Zm8.02,.95c.28,2.93-.45,5.53-.81,5.86-1.17,0-2.35,.79-3.43,.08l-1.8-.4c.09-1.5,.55-2.93,.36-4.51,1.64-.95,3.71-.79,5.69-1.03h-.01Zm-15.41,5.38c-.72,3.25-2.25,6.41-5.86,8.47l-3.6,2.06-.63,.4c-.45-.39-.98-.69-1.55-.88,.72-1.66,2.89-4.28,3.52-6.49,1.35-2.85,2.07-6.08,5.5-8.16l1.08-.64c1.53,1.36,1.35,3.34,1.53,5.24Zm10.82,1.9c.36,2.38-.09,6.26-2.8,6.89-4.42,2.53-11,3.96-16.5,4.12-.2-.47-.51-.88-.9-1.2,1.44-.32,2.89-1.42,4.06-2.06,3.07-1.58,5.32-4.35,7.74-6.49,2.27-1.41,5.42-1.41,8.4-1.26h0Zm9.02,.16c-.55,1.82-1.17,3.64-2.25,5.3-2.35-.16-4.42,.24-6.49,.55,1.17-1.66,1.8-3.56,2.52-5.46,2.03-.53,4.14-.67,6.22-.4Zm4.51,3.17c1.72,.34,3.41,.82,5.05,1.42-.63,1.98-2.62,3.17-4.24,4.83-1.9-1.19-3.6-2.3-5.77-3.01,.94-.87,1.66-1.96,2.08-3.17,.81-.16,1.89-.08,2.88-.08h0Zm-1.71,6.33c-2.44,4.51-8.3,4.98-13.35,5.46-5.87,.05-11.73-.48-17.5-1.58-.18-.49-.18-1.02,0-1.5,6.58,0,12.72-1.74,18.22-3.96,1.71-.4,3.52-.63,5.32-1.03,2.61,.54,5.14,1.1,7.3,2.61h0Zm-34.18,.32c-.45,.55-.81,1.11-1.44,1.58-.09-.32,.09-.55,.09-.95l.45-1.27,.9,.64Zm1.89,1.82c-.99,.4-2.17,.63-3.25,.95l2.35-1.82c.45,.08,.63,.55,.9,.87Zm37.52,4.59c-1.24,.91-2.65,1.55-4.15,1.9l-2.8,.16c-1.17-1.11-2.7-1.9-4.06-2.77,1.99-.79,4.06-1.74,5.86-3.01,1.99,.63,4.24,2.05,5.14,3.72h0Zm-37.61-2.14c-.9-.12-1.78-.36-2.61-.71,.92-.21,1.85-.35,2.8-.4l-.18,1.11Zm-.28,1.03c-.18,.4-.63,.63-1.26,.71-.62-.44-1.15-1-1.53-1.66,.91,.32,1.99,.48,2.8,.95h0Zm17.77,1.26c1.08,.08,5.41,.08,7.22-.24,.61,.3,1.19,.67,1.71,1.11l2.25,1.9c-1.26,1.03-3.97,2.21-6.04,2.38-4.15,.4-7.76-.95-11.36-1.82-3.34-1.19-6.68-2.77-9.83-4.36l.36-.16-.09-.79,6.4,1.19,9.38,.79Zm-16.59-.55c4.06,2.69,10.46,5.53,15.33,6.49,2.17,.4,4.24,.71,6.14,1.42,1,1.02,1.8,2.23,2.35,3.56-1.35,.08-2.8,.24-4.06,.16-5.86,.55-10.46-2.38-14.61-5.53-1.62-1.24-3.13-2.62-4.51-4.12-.52-.3-.98-.71-1.35-1.19,.39-.08,.68-.4,.72-.8h0Zm-1.8,1.11c1.89,2.53,7.67,7.68,10.37,9.74,1.44,1.74,1.89,3.96,1.8,6.18-3.79-.32-7.67-2.14-9.65-5.07-.72-1.58-1.63-3.32-2.07-4.83-.81-1.9-1.71-3.64-1.9-5.78,.45,.08,1.1-.16,1.45-.24h0Zm29.59,4.75c1.8,.87,2.8,2.14,3.97,3.56-1.8,.95-4.06,1.11-6.23,.87-.72-1.19-1.8-2.21-2.8-3.25,1.45-.48,3.07-.71,4.42-1.5,.44-.15,.35,.4,.62,.32h0Zm-9.11,7.68c.81,.79,.9,1.82,1.53,2.69l.36,1.19c-2.68,.32-5.4,.16-8.02-.48-.18-1.62-.45-3.24-.81-4.83,1.16,.63,4.94,1.43,6.93,1.43h0Zm-13.45,3.64c.04,1.48-.17,2.95-.63,4.36-2.17-.4-3.87-1.35-5.32-2.21l-1.17-1.27c.18-.47,1.71-2.14,2.17-3.87,1.57,1.14,3.23,2.14,4.96,3Zm-9.56-16.39l-.36-2.06c.47,.64,.98,1.25,1.53,1.82l-1.18,.24Zm-4.87,.32c.28,.08,.9,.32,1.35,.24-.18,2.14-.99,3.87-1.8,5.78-.45,1.5-1.35,3.25-2.07,4.83-2.08,2.93-5.95,4.75-9.65,5.07-.09-2.21,.36-4.42,1.71-6.18,2.71-2.06,8.48-7.21,10.46-9.74h0Zm-7.04,16.07c1.7-.87,3.33-1.87,4.87-3.01,.55,1.74,2.07,3.4,2.25,3.87l-1.17,1.27c-1.53,.87-3.16,1.82-5.32,2.21-.5-1.39-.72-2.87-.63-4.34h0Z" style="fill: #fff; fill-rule: evenodd;"/>
  <g>
    <path d="M112,16.53c0,.49-.1,.93-.3,1.32-.2,.39-.47,.72-.81,.99-.34,.27-.74,.47-1.19,.62s-.94,.21-1.46,.21h-5.82V7.49h6.28c.42,0,.81,.09,1.15,.27,.34,.18,.63,.42,.88,.71,.24,.29,.43,.62,.56,1,.13,.37,.2,.75,.2,1.12,0,.6-.15,1.15-.45,1.67-.3,.52-.74,.91-1.3,1.16,.7,.21,1.25,.58,1.66,1.12,.41,.54,.61,1.2,.61,1.98Zm-7.65-7.38v3.59h3.53c.24,0,.46-.05,.66-.14,.2-.09,.38-.21,.53-.37,.15-.15,.27-.34,.36-.56,.09-.22,.13-.46,.13-.72,0-.53-.15-.96-.45-1.3-.3-.34-.68-.51-1.13-.51h-3.64Zm5.68,7.02c0-.25-.04-.49-.13-.72-.09-.23-.2-.43-.34-.6-.14-.17-.32-.31-.52-.41-.21-.1-.43-.15-.67-.15h-4.01v3.72h3.89c.25,0,.49-.05,.7-.15s.41-.23,.57-.39c.16-.17,.29-.36,.38-.58,.09-.22,.14-.46,.14-.71Z" style="fill: #fff;"/>
    <path d="M118.81,12.33c-.73,.02-1.38,.19-1.95,.51s-.97,.76-1.21,1.35v5.49h-1.89V10.7h1.75v2.01c.31-.62,.71-1.11,1.21-1.48s1.03-.57,1.6-.61h.28c.07,0,.14,0,.2,.02v1.7Z" style="fill: #fff;"/>
    <path d="M122.45,19.84c-.44,0-.84-.07-1.21-.21-.37-.14-.69-.34-.96-.59-.27-.25-.48-.55-.63-.89-.15-.34-.23-.71-.23-1.12,0-.42,.09-.81,.27-1.15s.44-.64,.78-.89,.74-.45,1.2-.58,.98-.21,1.54-.21c.42,0,.84,.04,1.25,.11,.41,.07,.78,.17,1.12,.3v-.62c0-.66-.19-1.18-.57-1.55s-.92-.56-1.63-.56c-.48,0-.95,.09-1.42,.27-.46,.18-.94,.43-1.43,.76l-.58-1.2c1.16-.78,2.36-1.17,3.6-1.17s2.2,.31,2.88,.94c.69,.63,1.03,1.53,1.03,2.71v3.24c0,.4,.17,.61,.5,.62v1.61c-.18,.03-.34,.06-.47,.07-.13,.01-.26,.02-.39,.02-.37,0-.65-.09-.85-.27-.2-.18-.32-.42-.37-.7l-.05-.57c-.4,.53-.9,.93-1.48,1.21-.59,.28-1.22,.42-1.9,.42Zm.51-1.39c.46,0,.89-.08,1.3-.25,.41-.17,.72-.4,.95-.7,.24-.21,.36-.42,.36-.65v-1.18c-.32-.13-.66-.22-1.02-.29-.36-.07-.71-.1-1.06-.1-.67,0-1.23,.15-1.66,.44-.43,.29-.64,.68-.64,1.16,0,.45,.17,.82,.5,1.12,.33,.3,.76,.45,1.27,.45Z" style="fill: #fff;"/>
    <path d="M137.79,19.67h-1.89v-5.03c0-.85-.13-1.46-.4-1.84s-.67-.58-1.19-.58c-.27,0-.55,.05-.82,.15-.28,.1-.53,.25-.77,.44-.24,.19-.46,.41-.64,.67s-.33,.54-.44,.85v5.34h-1.89V10.7h1.72v1.8c.34-.61,.84-1.08,1.49-1.43,.65-.35,1.37-.52,2.16-.52,.54,0,.98,.1,1.32,.29,.34,.19,.61,.46,.81,.8s.34,.73,.42,1.17c.08,.44,.12,.91,.12,1.4v5.47Z" style="fill: #fff;"/>
    <path d="M139.4,15.17c0-.63,.11-1.22,.33-1.78,.22-.56,.53-1.05,.94-1.48,.41-.42,.89-.76,1.47-1,.57-.25,1.21-.37,1.92-.37,.93,0,1.72,.2,2.39,.61,.67,.41,1.17,.95,1.5,1.62l-1.84,.58c-.22-.38-.51-.67-.88-.88-.37-.21-.77-.32-1.22-.32-.38,0-.73,.07-1.06,.22s-.61,.36-.85,.63c-.24,.27-.43,.59-.57,.95-.14,.37-.21,.77-.21,1.22s.07,.84,.21,1.21c.14,.37,.34,.69,.58,.97s.53,.49,.86,.64c.33,.15,.67,.23,1.04,.23,.23,0,.46-.03,.69-.09,.23-.06,.44-.15,.63-.27,.19-.11,.35-.25,.5-.39,.14-.15,.25-.31,.32-.48l1.85,.55c-.3,.67-.8,1.23-1.49,1.66-.7,.43-1.52,.64-2.47,.64-.7,0-1.33-.13-1.9-.38-.57-.25-1.06-.59-1.47-1.02-.41-.43-.72-.92-.94-1.48-.22-.56-.33-1.16-.33-1.78Z" style="fill: #fff;"/>
    <path d="M157.62,19.67h-1.89v-5.03c0-.82-.15-1.43-.44-1.83s-.71-.59-1.26-.59c-.26,0-.53,.05-.79,.15-.26,.1-.51,.25-.75,.44-.23,.19-.44,.41-.63,.67-.18,.26-.32,.54-.41,.85v5.34h-1.89V7.14h1.89v5.35c.34-.62,.81-1.1,1.4-1.44s1.23-.51,1.93-.51c.56,0,1.02,.1,1.38,.3s.65,.47,.87,.8c.22,.33,.37,.72,.46,1.16s.13,.91,.13,1.4v5.47Z" style="fill: #fff;"/>
    <path d="M106.01,25.91h1.68l4.8,12.18h-2.02l-1.29-3.31h-4.7l-1.27,3.31h-2.04l4.84-12.18Zm2.8,7.45l-1.96-5.23-2.02,5.23h3.98Z" style="fill: #fff;"/>
    <path d="M112.94,33.6c0-.63,.11-1.22,.33-1.78s.53-1.05,.94-1.48c.41-.42,.9-.76,1.47-1,.57-.25,1.21-.37,1.92-.37,.93,0,1.72,.2,2.39,.61,.67,.41,1.17,.95,1.5,1.62l-1.84,.58c-.22-.38-.51-.67-.88-.88-.37-.21-.77-.32-1.22-.32-.38,0-.73,.07-1.06,.22s-.61,.36-.85,.63c-.24,.27-.43,.59-.57,.95s-.21,.77-.21,1.22,.07,.84,.21,1.21,.34,.69,.58,.97,.53,.49,.86,.64c.33,.15,.67,.23,1.04,.23,.23,0,.46-.03,.69-.09,.23-.06,.44-.15,.63-.27,.19-.11,.35-.25,.5-.39,.14-.15,.25-.31,.32-.48l1.85,.55c-.3,.67-.8,1.23-1.49,1.66-.7,.43-1.52,.64-2.47,.64-.7,0-1.33-.13-1.9-.38-.57-.25-1.06-.59-1.47-1.02-.41-.43-.72-.92-.94-1.48s-.33-1.16-.33-1.78Z" style="fill: #fff;"/>
    <path d="M125.88,38.27c-.94,0-1.65-.31-2.13-.92-.48-.61-.72-1.52-.72-2.74v-5.49h1.89v5.11c0,1.61,.57,2.42,1.72,2.42,.54,0,1.05-.17,1.53-.5,.48-.33,.85-.81,1.12-1.44v-5.59h1.89v6.74c0,.22,.04,.37,.11,.46,.07,.09,.21,.14,.4,.15v1.61c-.2,.03-.36,.06-.48,.07-.13,.01-.25,.02-.36,.02-.34,0-.63-.09-.88-.28-.24-.19-.37-.43-.38-.73l-.03-.89c-.4,.65-.92,1.15-1.56,1.48-.64,.34-1.34,.51-2.11,.51Z" style="fill: #fff;"/>
    <path d="M138.67,38.27c-.72,0-1.36-.17-1.91-.51-.55-.34-.98-.79-1.3-1.34v5.34h-1.89v-12.63h1.67v1.61c.34-.54,.79-.97,1.33-1.29s1.16-.48,1.84-.48c.62,0,1.18,.13,1.7,.38,.52,.25,.96,.59,1.34,1.01,.38,.42,.67,.92,.88,1.48,.21,.56,.32,1.15,.32,1.77,0,.65-.1,1.26-.29,1.83-.19,.57-.47,1.06-.82,1.48s-.78,.75-1.26,1c-.49,.25-1.02,.37-1.6,.37Zm-.62-1.61c.4,0,.76-.09,1.09-.26,.33-.17,.61-.4,.84-.69,.23-.29,.41-.61,.54-.98s.19-.74,.19-1.13c0-.41-.07-.8-.21-1.17-.14-.37-.34-.69-.58-.96s-.54-.49-.88-.65c-.34-.16-.72-.24-1.12-.24-.24,0-.49,.05-.76,.14-.26,.09-.51,.22-.74,.38-.23,.16-.43,.35-.6,.56-.17,.21-.29,.44-.36,.69v2.35c.11,.27,.26,.53,.45,.77,.18,.24,.39,.45,.61,.62,.22,.17,.47,.31,.73,.41,.26,.1,.53,.15,.81,.15Z" style="fill: #fff;"/>
    <path d="M147.11,38.27c-.94,0-1.65-.31-2.13-.92-.48-.61-.72-1.52-.72-2.74v-5.49h1.89v5.11c0,1.61,.57,2.42,1.72,2.42,.54,0,1.05-.17,1.53-.5,.48-.33,.85-.81,1.12-1.44v-5.59h1.89v6.74c0,.22,.04,.37,.11,.46,.07,.09,.21,.14,.4,.15v1.61c-.19,.03-.35,.06-.48,.07-.13,.01-.25,.02-.36,.02-.34,0-.63-.09-.88-.28-.24-.19-.37-.43-.38-.73l-.03-.89c-.4,.65-.92,1.15-1.56,1.48-.64,.34-1.34,.51-2.11,.51Z" style="fill: #fff;"/>
    <path d="M162.84,38.1h-1.89v-5.03c0-.85-.13-1.46-.4-1.84-.27-.38-.67-.58-1.19-.58-.27,0-.55,.05-.82,.15s-.53,.25-.77,.44c-.24,.19-.45,.41-.64,.67-.19,.26-.33,.54-.44,.85v5.34h-1.89v-8.97h1.72v1.8c.34-.61,.84-1.08,1.49-1.43,.65-.35,1.37-.52,2.16-.52,.54,0,.98,.1,1.32,.29,.34,.19,.62,.46,.82,.8,.2,.34,.34,.73,.42,1.17s.12,.91,.12,1.4v5.47Z" style="fill: #fff;"/>
    <path d="M164.45,33.6c0-.63,.11-1.22,.33-1.78,.22-.56,.53-1.05,.93-1.48,.41-.42,.9-.76,1.47-1,.57-.25,1.21-.37,1.92-.37,.93,0,1.72,.2,2.39,.61,.67,.41,1.17,.95,1.5,1.62l-1.84,.58c-.22-.38-.51-.67-.88-.88-.37-.21-.77-.32-1.22-.32-.38,0-.73,.07-1.05,.22s-.61,.36-.85,.63c-.24,.27-.43,.59-.57,.95-.14,.37-.21,.77-.21,1.22s.07,.84,.21,1.21c.14,.37,.34,.69,.58,.97s.53,.49,.86,.64,.67,.23,1.04,.23c.23,0,.46-.03,.69-.09,.23-.06,.44-.15,.63-.27,.19-.11,.35-.25,.5-.39,.14-.15,.25-.31,.32-.48l1.85,.55c-.3,.67-.79,1.23-1.49,1.66-.7,.43-1.52,.64-2.47,.64-.7,0-1.33-.13-1.9-.38s-1.06-.59-1.47-1.02c-.41-.43-.72-.92-.94-1.48-.22-.56-.33-1.16-.33-1.78Z" style="fill: #fff;"/>
    <path d="M179.62,37.63c-.24,.11-.57,.24-1,.39-.42,.14-.88,.21-1.36,.21-.3,0-.58-.04-.84-.12-.26-.08-.5-.2-.7-.36-.2-.16-.36-.37-.47-.63s-.17-.57-.17-.94v-5.61h-1.18v-1.46h1.18v-2.95h1.89v2.95h1.96v1.46h-1.96v5.01c.02,.32,.12,.55,.3,.69,.18,.14,.4,.21,.66,.21s.51-.05,.75-.14c.24-.09,.42-.17,.53-.22l.39,1.49Z" style="fill: #fff;"/>
    <path d="M183.69,38.27c-.94,0-1.65-.31-2.13-.92-.48-.61-.72-1.52-.72-2.74v-5.49h1.89v5.11c0,1.61,.57,2.42,1.72,2.42,.54,0,1.05-.17,1.53-.5,.48-.33,.85-.81,1.12-1.44v-5.59h1.89v6.74c0,.22,.04,.37,.11,.46,.07,.09,.21,.14,.4,.15v1.61c-.19,.03-.35,.06-.48,.07-.13,.01-.25,.02-.36,.02-.34,0-.63-.09-.88-.28-.24-.19-.37-.43-.38-.73l-.03-.89c-.4,.65-.92,1.15-1.56,1.48-.64,.34-1.34,.51-2.11,.51Z" style="fill: #fff;"/>
    <path d="M196.42,30.75c-.73,.02-1.38,.19-1.95,.51s-.97,.76-1.21,1.35v5.49h-1.89v-8.97h1.75v2.01c.31-.62,.71-1.11,1.21-1.48,.5-.37,1.03-.57,1.6-.61h.28c.07,0,.14,0,.2,.02v1.7Z" style="fill: #fff;"/>
    <path d="M201.41,38.27c-.7,0-1.33-.12-1.9-.37-.57-.25-1.06-.58-1.47-1-.41-.42-.72-.92-.94-1.48-.22-.56-.33-1.16-.33-1.78s.11-1.23,.33-1.79c.22-.57,.54-1.06,.94-1.49,.41-.43,.9-.77,1.47-1.01,.57-.25,1.21-.37,1.92-.37s1.33,.13,1.9,.38,1.05,.59,1.45,1c.4,.42,.71,.9,.92,1.46,.21,.56,.32,1.14,.32,1.74,0,.14,0,.27-.02,.39s-.02,.22-.03,.3h-7.19c.03,.4,.13,.76,.28,1.08,.15,.32,.35,.6,.6,.83s.53,.41,.84,.54,.64,.19,.99,.19c.25,0,.5-.03,.75-.09s.47-.15,.68-.27c.21-.12,.39-.27,.55-.44,.16-.17,.29-.36,.38-.57l1.61,.46c-.31,.67-.82,1.23-1.54,1.66-.71,.43-1.55,.64-2.5,.64Zm2.73-5.34c-.03-.38-.13-.73-.28-1.05-.16-.32-.35-.59-.59-.81-.24-.22-.52-.4-.84-.52-.32-.13-.66-.19-1.01-.19s-.69,.06-1,.19-.59,.3-.83,.52c-.24,.22-.43,.5-.58,.81-.15,.32-.24,.67-.28,1.05h5.42Z" style="fill: #fff;"/>
    <path d="M101.65,50.34c0-.73,.13-1.46,.39-2.19,.26-.73,.65-1.38,1.16-1.96,.51-.58,1.13-1.04,1.86-1.4,.73-.35,1.56-.53,2.49-.53,1.11,0,2.06,.25,2.85,.74,.79,.49,1.38,1.13,1.78,1.92l-1.51,1.01c-.17-.37-.38-.67-.62-.93s-.5-.45-.79-.6c-.29-.15-.58-.25-.89-.32-.31-.06-.61-.09-.89-.09-.64,0-1.2,.13-1.68,.39s-.88,.6-1.21,1.02c-.33,.42-.57,.9-.74,1.42-.17,.53-.25,1.05-.25,1.58,0,.6,.1,1.16,.29,1.7,.19,.54,.47,1.01,.81,1.42,.35,.41,.76,.74,1.24,.99,.48,.25,1.01,.37,1.58,.37,.3,0,.6-.04,.92-.11,.31-.07,.62-.19,.91-.36,.29-.17,.56-.37,.81-.63,.25-.25,.45-.55,.61-.91l1.6,.91c-.19,.46-.47,.86-.82,1.21-.35,.35-.75,.64-1.2,.88-.45,.24-.92,.42-1.42,.55-.5,.13-.99,.19-1.47,.19-.86,0-1.64-.18-2.35-.55-.71-.37-1.32-.84-1.84-1.43-.51-.59-.92-1.26-1.2-2.01-.29-.75-.43-1.51-.43-2.29Z" style="fill: #fff;"/>
    <path d="M117.99,56.69c-.7,0-1.33-.12-1.9-.37-.57-.25-1.06-.58-1.47-1-.41-.42-.72-.92-.94-1.48-.22-.56-.33-1.16-.33-1.78s.11-1.23,.33-1.79c.22-.57,.54-1.06,.94-1.49,.41-.43,.9-.77,1.47-1.01,.57-.25,1.21-.37,1.92-.37s1.33,.13,1.9,.38c.57,.25,1.05,.59,1.45,1,.4,.42,.71,.9,.92,1.46,.21,.56,.32,1.14,.32,1.74,0,.14,0,.27-.02,.39-.01,.12-.02,.22-.03,.3h-7.19c.03,.4,.13,.76,.28,1.08,.15,.32,.35,.6,.6,.83s.53,.41,.84,.54,.64,.19,.99,.19c.25,0,.5-.03,.75-.09s.47-.15,.68-.27c.21-.12,.39-.27,.55-.44,.16-.17,.29-.36,.38-.57l1.61,.46c-.31,.67-.82,1.23-1.54,1.66-.71,.43-1.55,.64-2.5,.64Zm2.73-5.34c-.03-.38-.13-.73-.28-1.05-.15-.32-.35-.59-.59-.81-.24-.22-.52-.4-.84-.52-.32-.13-.66-.19-1.01-.19s-.69,.06-1,.19c-.31,.13-.59,.3-.83,.52-.24,.22-.43,.5-.58,.81-.15,.32-.24,.67-.27,1.05h5.42Z" style="fill: #fff;"/>
    <path d="M132.18,56.52h-1.89v-5.03c0-.85-.13-1.46-.4-1.84-.27-.38-.67-.58-1.19-.58-.27,0-.55,.05-.82,.15s-.53,.25-.77,.44c-.24,.19-.45,.41-.64,.67-.19,.26-.33,.54-.44,.85v5.34h-1.89v-8.97h1.72v1.8c.34-.61,.84-1.08,1.49-1.43,.65-.35,1.37-.52,2.16-.52,.54,0,.98,.1,1.32,.29,.34,.19,.62,.46,.82,.8,.2,.34,.34,.73,.42,1.17s.12,.91,.12,1.4v5.47Z" style="fill: #fff;"/>
    <path d="M139.28,56.06c-.24,.11-.57,.24-1,.39-.42,.14-.88,.21-1.36,.21-.3,0-.58-.04-.84-.12-.26-.08-.5-.2-.7-.36-.2-.16-.36-.37-.47-.63s-.17-.57-.17-.94v-5.61h-1.18v-1.46h1.18v-2.95h1.89v2.95h1.96v1.46h-1.96v5.01c.02,.32,.12,.55,.3,.69,.18,.14,.4,.21,.66,.21s.51-.05,.75-.14c.24-.09,.42-.17,.53-.22l.39,1.49Z" style="fill: #fff;"/>
    <path d="M144.43,56.69c-.7,0-1.33-.12-1.9-.37-.57-.25-1.06-.58-1.47-1-.41-.42-.72-.92-.94-1.48-.22-.56-.33-1.16-.33-1.78s.11-1.23,.33-1.79c.22-.57,.54-1.06,.94-1.49,.41-.43,.9-.77,1.47-1.01,.57-.25,1.21-.37,1.92-.37s1.33,.13,1.9,.38,1.05,.59,1.45,1c.4,.42,.71,.9,.92,1.46,.21,.56,.32,1.14,.32,1.74,0,.14,0,.27-.02,.39s-.02,.22-.03,.3h-7.19c.03,.4,.13,.76,.28,1.08,.15,.32,.35,.6,.6,.83s.53,.41,.84,.54,.64,.19,.99,.19c.25,0,.5-.03,.75-.09s.47-.15,.68-.27c.21-.12,.39-.27,.55-.44,.16-.17,.29-.36,.38-.57l1.61,.46c-.31,.67-.82,1.23-1.54,1.66-.71,.43-1.55,.64-2.5,.64Zm2.73-5.34c-.03-.38-.13-.73-.28-1.05-.16-.32-.35-.59-.59-.81-.24-.22-.52-.4-.84-.52-.32-.13-.66-.19-1.01-.19s-.69,.06-1,.19-.59,.3-.83,.52c-.24,.22-.43,.5-.58,.81-.15,.32-.24,.67-.28,1.05h5.42Z" style="fill: #fff;"/>
    <path d="M155.62,49.18c-.73,.02-1.38,.19-1.95,.51s-.97,.76-1.21,1.35v5.49h-1.89v-8.97h1.75v2.01c.31-.62,.71-1.11,1.21-1.48,.5-.37,1.03-.57,1.6-.61h.28c.07,0,.14,0,.2,.02v1.7Z" style="fill: #fff;"/>
  </g>
</svg>